<svg width="47" height="47" viewBox="0 0 47 47" fill="none" xmlns="http://www.w3.org/2000/svg">
<path d="M47 23.5C47 36.4787 36.4787 47 23.5 47C10.5213 47 0 36.4787 0 23.5C0 10.5213 10.5213 0 23.5 0C36.4787 0 47 10.5213 47 23.5Z" fill="black"/>
<path d="M7.08555 23.744C7.24155 23.744 7.34955 23.672 7.40955 23.528C7.48155 23.384 7.52355 23.204 7.53555 22.988C7.55955 22.76 7.57155 22.538 7.57155 22.322V20.486C7.57155 19.874 7.66755 19.334 7.85955 18.866C8.05155 18.398 8.36355 18.026 8.79555 17.75C9.23955 17.474 9.82755 17.312 10.5595 17.264L10.7575 18.758C10.3135 18.806 9.97755 18.92 9.74955 19.1C9.52155 19.268 9.36555 19.496 9.28155 19.784C9.19755 20.06 9.15555 20.39 9.15555 20.774V22.844C9.15555 23.276 9.05355 23.612 8.84955 23.852C8.65755 24.092 8.41755 24.278 8.12955 24.41C8.41755 24.53 8.65755 24.716 8.84955 24.968C9.05355 25.208 9.15555 25.544 9.15555 25.976V27.938C9.15555 28.322 9.19755 28.658 9.28155 28.946C9.36555 29.222 9.52155 29.444 9.74955 29.612C9.97755 29.792 10.3135 29.912 10.7575 29.972L10.5595 31.448C9.82755 31.4 9.23955 31.238 8.79555 30.962C8.36355 30.686 8.05155 30.314 7.85955 29.846C7.66755 29.378 7.57155 28.838 7.57155 28.226V26.498C7.57155 26.222 7.55955 25.976 7.53555 25.76C7.51155 25.544 7.46355 25.376 7.39155 25.256C7.33155 25.136 7.22955 25.076 7.08555 25.076H5.98755V23.744H7.08555ZM17.1488 28.568C16.3328 29.06 15.4808 29.306 14.5928 29.306C13.5128 29.306 12.6908 29.096 12.1268 28.676C11.5748 28.256 11.2928 27.644 11.2808 26.84C11.2688 25.196 12.3308 24.374 14.4668 24.374L16.5908 24.392C16.5908 23.636 16.4408 23.078 16.1408 22.718C15.8528 22.346 15.4448 22.16 14.9168 22.16C14.6408 22.16 14.3768 22.178 14.1248 22.214C13.8728 22.25 13.6328 22.304 13.4048 22.376L13.2248 23.312L11.7308 23.078L12.0548 21.278C12.5228 21.11 12.9968 20.984 13.4768 20.9C13.9568 20.804 14.4368 20.756 14.9168 20.756C16.0568 20.756 16.9208 21.062 17.5088 21.674C18.1088 22.274 18.4088 23.162 18.4088 24.338V27.38L19.9928 27.902L19.5248 29.378L17.1488 28.568ZM14.5208 25.652C14.0768 25.652 13.7348 25.754 13.4948 25.958C13.2548 26.15 13.1348 26.432 13.1348 26.804C13.1348 27.548 13.6448 27.92 14.6648 27.92C15.3848 27.92 16.0268 27.728 16.5908 27.344V25.652H14.5208ZM20.3662 32.87V31.448H21.8782V22.79L20.1862 22.232L20.6542 20.756L23.1562 21.62C23.5402 21.356 23.9542 21.146 24.3982 20.99C24.8422 20.834 25.2562 20.756 25.6402 20.756C26.8762 20.756 27.8422 21.128 28.5382 21.872C29.2462 22.604 29.6002 23.612 29.6002 24.896C29.6002 25.772 29.4322 26.546 29.0962 27.218C28.7602 27.89 28.2802 28.412 27.6562 28.784C27.0442 29.144 26.3182 29.324 25.4782 29.324C24.8422 29.324 24.2482 29.24 23.6962 29.072V31.448H25.2082V32.87H20.3662ZM25.4602 27.866C26.1802 27.866 26.7442 27.608 27.1522 27.092C27.5602 26.576 27.7642 25.85 27.7642 24.914C27.7642 24.038 27.5782 23.372 27.2062 22.916C26.8342 22.46 26.2882 22.232 25.5682 22.232C25.2202 22.232 24.8722 22.292 24.5242 22.412C24.1762 22.532 23.8942 22.694 23.6782 22.898V27.506C23.8822 27.614 24.1462 27.704 24.4702 27.776C24.8062 27.836 25.1362 27.866 25.4602 27.866ZM31.0223 21.08H34.3343V27.56H35.8283V29H31.0223V27.56H32.5163V22.502H31.0223V21.08ZM33.2183 17.192C33.5783 17.192 33.8663 17.306 34.0823 17.534C34.3103 17.75 34.4243 18.038 34.4243 18.398C34.4243 18.758 34.3103 19.046 34.0823 19.262C33.8663 19.478 33.5783 19.586 33.2183 19.586C32.8703 19.586 32.5883 19.478 32.3723 19.262C32.1563 19.046 32.0483 18.758 32.0483 18.398C32.0483 18.038 32.1563 17.75 32.3723 17.534C32.5883 17.306 32.8703 17.192 33.2183 17.192ZM39.9157 25.076C39.7717 25.076 39.6637 25.136 39.5917 25.256C39.5197 25.376 39.4717 25.544 39.4477 25.76C39.4357 25.976 39.4297 26.222 39.4297 26.498V28.226C39.4297 28.838 39.3337 29.378 39.1417 29.846C38.9497 30.314 38.6317 30.686 38.1877 30.962C37.7557 31.238 37.1677 31.4 36.4237 31.448L36.2257 29.972C36.6817 29.912 37.0237 29.792 37.2517 29.612C37.4797 29.444 37.6357 29.222 37.7197 28.946C37.8037 28.658 37.8457 28.322 37.8457 27.938V25.976C37.8457 25.544 37.9417 25.208 38.1337 24.968C38.3377 24.716 38.5837 24.53 38.8717 24.41C38.5837 24.278 38.3377 24.092 38.1337 23.852C37.9417 23.612 37.8457 23.276 37.8457 22.844V20.774C37.8457 20.39 37.8037 20.06 37.7197 19.784C37.6357 19.496 37.4797 19.268 37.2517 19.1C37.0237 18.92 36.6817 18.806 36.2257 18.758L36.4237 17.264C37.1677 17.312 37.7557 17.474 38.1877 17.75C38.6317 18.026 38.9497 18.398 39.1417 18.866C39.3337 19.334 39.4297 19.874 39.4297 20.486V22.322C39.4297 22.538 39.4357 22.76 39.4477 22.988C39.4717 23.204 39.5137 23.384 39.5737 23.528C39.6457 23.672 39.7597 23.744 39.9157 23.744H41.0137V25.076H39.9157Z" fill="white"/>
</svg>
